<svg width="1000" height="520" xmlns="http://www.w3.org/2000/svg" role="img" aria-labelledby="chart-title chart-subtitle"><defs><style><![CDATA[
		.project-name { 
			font-family: -apple-system, BlinkMacSystemFont, system-ui, sans-serif; 
			font-size: 16px; 
			font-weight: 400; 
			fill: #6366f1; 
			letter-spacing: 0.01em;
		}
		.chart-title { 
			font-family: -apple-system, BlinkMacSystemFont, system-ui, sans-serif; 
			font-size: 18px; 
			font-weight: 600; 
			fill: #111827; 
			letter-spacing: -0.01em;
		}
		.chart-subtitle { 
			font-family: -apple-system, BlinkMacSystemFont, system-ui, sans-serif; 
			font-size: 13px; 
			font-weight: 400; 
			fill: #6b7280;
		}
		.axis-label { 
			font-family: -apple-system, BlinkMacSystemFont, system-ui, sans-serif; 
			font-size: 11px; 
			font-weight: 400; 
			fill: #9ca3af;
		}
		.axis-title { 
			font-family: -apple-system, BlinkMacSystemFont, system-ui, sans-serif; 
			font-size: 12px; 
			font-weight: 500; 
			fill: #4b5563;
		}
		.legend-title { 
			font-family: -apple-system, BlinkMacSystemFont, system-ui, sans-serif; 
			font-size: 12px; 
			font-weight: 600; 
			fill: #374151;
		}
		.legend-text { 
			font-family: -apple-system, BlinkMacSystemFont, system-ui, sans-serif; 
			font-size: 11px; 
			font-weight: 400; 
			fill: #4b5563;
		}
		.legend-count { 
			font-family: ui-monospace, 'SF Mono', 'Monaco', 'Cascadia Code', monospace; 
			font-size: 10px; 
			font-weight: 500; 
			fill: #6b7280;
		}
		.meta-text { 
			font-family: -apple-system, BlinkMacSystemFont, system-ui, sans-serif; 
			font-size: 10px; 
			fill: #9ca3af;
		}
		.grid-line { 
			stroke: #f1f5f9; 
			stroke-width: 0.5; 
			opacity: 1;
		}
		.grid-line-major { 
			stroke: #e2e8f0; 
			stroke-width: 0.75; 
			opacity: 1;
		}
		.chart-area { 
			fill: #ffffff;
		}
		.chart-border { 
			stroke: none;
			fill: none;
		}
		.trend-line { 
			fill: none; 
			stroke-width: 2; 
			stroke-linecap: round; 
			stroke-linejoin: round; 
			opacity: 0.9;
		}
		.trend-line:hover { 
			stroke-width: 3;
			opacity: 1;
		}
		.data-point { 
			fill: #ffffff;
			stroke-width: 2;
		}
		.data-point:hover { 
			r: 4;
		}
		.legend-background { 
			fill: #fafafa; 
			stroke: #e4e4e7; 
			stroke-width: 0.5; 
			rx: 6;
		}
		.legend-item { 
			cursor: pointer;
		}
		.legend-color-indicator { 
			rx: 1;
		}
		@media (prefers-reduced-motion: reduce) {
			* {
				transition: none !important;
				animation: none !important;
			}
		}
	]]></style></defs><rect width="1000" height="520" fill="#ffffff"/><text id="chart-title" x="500" y="28" class="project-name" text-anchor="middle">template-arch-lint</text><text x="500" y="48" class="chart-title" text-anchor="middle">Language Trends</text><text id="chart-subtitle" x="500" y="65" class="chart-subtitle" text-anchor="middle">Lines of code over time</text><rect x="80" y="90" width="680" height="330" class="chart-area"/><line x1="80" y1="90" x2="760" y2="90" class="grid-line-major"/><line x1="80" y1="156" x2="760" y2="156" class="grid-line"/><line x1="80" y1="222" x2="760" y2="222" class="grid-line"/><line x1="80" y1="288" x2="760" y2="288" class="grid-line"/><line x1="80" y1="354" x2="760" y2="354" class="grid-line"/><line x1="80" y1="420" x2="760" y2="420" class="grid-line-major"/><circle cx="80" cy="419" r="3" fill="#4285f4" class="data-point"><title>Go: 328 lines (Aug 9, 2025)</title></circle><circle cx="415" cy="346" r="3" fill="#4285f4" class="data-point"><title>Go: 13.9K lines (Aug 12, 2025)</title></circle><circle cx="424" cy="332" r="3" fill="#4285f4" class="data-point"><title>Go: 16.5K lines (Aug 12, 2025)</title></circle><circle cx="432" cy="332" r="3" fill="#4285f4" class="data-point"><title>Go: 16.5K lines (Aug 12, 2025)</title></circle><circle cx="441" cy="332" r="3" fill="#4285f4" class="data-point"><title>Go: 16.5K lines (Aug 12, 2025)</title></circle><circle cx="450" cy="332" r="3" fill="#4285f4" class="data-point"><title>Go: 16.5K lines (Aug 12, 2025)</title></circle><circle cx="458" cy="332" r="3" fill="#4285f4" class="data-point"><title>Go: 16.5K lines (Aug 12, 2025)</title></circle><circle cx="467" cy="386" r="3" fill="#4285f4" class="data-point"><title>Go: 6.4K lines (Aug 12, 2025)</title></circle><circle cx="475" cy="387" r="3" fill="#4285f4" class="data-point"><title>Go: 6.3K lines (Aug 13, 2025)</title></circle><circle cx="484" cy="387" r="3" fill="#4285f4" class="data-point"><title>Go: 6.3K lines (Aug 13, 2025)</title></circle><circle cx="493" cy="386" r="3" fill="#4285f4" class="data-point"><title>Go: 6.5K lines (Aug 13, 2025)</title></circle><circle cx="501" cy="358" r="3" fill="#4285f4" class="data-point"><title>Go: 11.7K lines (Aug 13, 2025)</title></circle><circle cx="510" cy="357" r="3" fill="#4285f4" class="data-point"><title>Go: 11.9K lines (Aug 13, 2025)</title></circle><circle cx="518" cy="357" r="3" fill="#4285f4" class="data-point"><title>Go: 11.9K lines (Aug 13, 2025)</title></circle><circle cx="527" cy="355" r="3" fill="#4285f4" class="data-point"><title>Go: 12.2K lines (Aug 13, 2025)</title></circle><circle cx="536" cy="348" r="3" fill="#4285f4" class="data-point"><title>Go: 13.6K lines (Aug 14, 2025)</title></circle><circle cx="544" cy="348" r="3" fill="#4285f4" class="data-point"><title>Go: 13.6K lines (Aug 14, 2025)</title></circle><circle cx="553" cy="348" r="3" fill="#4285f4" class="data-point"><title>Go: 13.6K lines (Aug 14, 2025)</title></circle><circle cx="562" cy="356" r="3" fill="#4285f4" class="data-point"><title>Go: 12.0K lines (Aug 14, 2025)</title></circle><circle cx="570" cy="356" r="3" fill="#4285f4" class="data-point"><title>Go: 12.0K lines (Aug 14, 2025)</title></circle><circle cx="579" cy="356" r="3" fill="#4285f4" class="data-point"><title>Go: 12.0K lines (Aug 14, 2025)</title></circle><circle cx="587" cy="356" r="3" fill="#4285f4" class="data-point"><title>Go: 12.0K lines (Aug 15, 2025)</title></circle><circle cx="596" cy="356" r="3" fill="#4285f4" class="data-point"><title>Go: 12.0K lines (Aug 15, 2025)</title></circle><circle cx="605" cy="332" r="3" fill="#4285f4" class="data-point"><title>Go: 16.5K lines (Aug 16, 2025)</title></circle><circle cx="613" cy="342" r="3" fill="#4285f4" class="data-point"><title>Go: 14.6K lines (Aug 16, 2025)</title></circle><circle cx="622" cy="363" r="3" fill="#4285f4" class="data-point"><title>Go: 10.7K lines (Aug 16, 2025)</title></circle><circle cx="630" cy="356" r="3" fill="#4285f4" class="data-point"><title>Go: 12.1K lines (Aug 16, 2025)</title></circle><circle cx="639" cy="358" r="3" fill="#4285f4" class="data-point"><title>Go: 11.7K lines (Aug 16, 2025)</title></circle><circle cx="648" cy="356" r="3" fill="#4285f4" class="data-point"><title>Go: 12.0K lines (Aug 16, 2025)</title></circle><circle cx="656" cy="356" r="3" fill="#4285f4" class="data-point"><title>Go: 12.0K lines (Aug 16, 2025)</title></circle><circle cx="665" cy="356" r="3" fill="#4285f4" class="data-point"><title>Go: 12.0K lines (Aug 17, 2025)</title></circle><circle cx="673" cy="356" r="3" fill="#4285f4" class="data-point"><title>Go: 12.0K lines (Aug 18, 2025)</title></circle><circle cx="682" cy="356" r="3" fill="#4285f4" class="data-point"><title>Go: 12.0K lines (Aug 18, 2025)</title></circle><circle cx="691" cy="356" r="3" fill="#4285f4" class="data-point"><title>Go: 12.0K lines (Aug 18, 2025)</title></circle><circle cx="699" cy="356" r="3" fill="#4285f4" class="data-point"><title>Go: 12.0K lines (Aug 18, 2025)</title></circle><circle cx="708" cy="356" r="3" fill="#4285f4" class="data-point"><title>Go: 12.0K lines (Aug 18, 2025)</title></circle><circle cx="716" cy="356" r="3" fill="#4285f4" class="data-point"><title>Go: 12.0K lines (Aug 18, 2025)</title></circle><circle cx="725" cy="356" r="3" fill="#4285f4" class="data-point"><title>Go: 12.0K lines (Aug 18, 2025)</title></circle><circle cx="734" cy="356" r="3" fill="#4285f4" class="data-point"><title>Go: 12.0K lines (Aug 18, 2025)</title></circle><circle cx="742" cy="356" r="3" fill="#4285f4" class="data-point"><title>Go: 12.0K lines (Aug 18, 2025)</title></circle><circle cx="751" cy="356" r="3" fill="#4285f4" class="data-point"><title>Go: 12.0K lines (Aug 18, 2025)</title></circle><circle cx="760" cy="356" r="3" fill="#4285f4" class="data-point"><title>Go: 12.0K lines (Aug 28, 2025)</title></circle><path d="M 80 419 L 88 419 L 97 420 L 105 420 L 114 420 L 123 420 L 131 420 L 140 420 L 148 420 L 157 420 L 166 420 L 174 418 L 183 404 L 191 404 L 200 404 L 209 404 L 217 404 L 226 404 L 234 403 L 243 403 L 252 403 L 260 403 L 269 403 L 277 403 L 286 401 L 295 401 L 303 400 L 312 400 L 321 400 L 329 400 L 338 400 L 346 400 L 355 400 L 364 400 L 372 399 L 381 388 L 389 388 L 398 388 L 407 388 L 415 346 L 424 332 L 432 332 L 441 332 L 450 332 L 458 332 L 467 386 L 475 387 L 484 387 L 493 386 L 501 358 L 510 357 L 518 357 L 527 355 L 536 348 L 544 348 L 553 348 L 562 356 L 570 356 L 579 356 L 587 356 L 596 356 L 605 332 L 613 342 L 622 363 L 630 356 L 639 358 L 648 356 L 656 356 L 665 356 L 673 356 L 682 356 L 691 356 L 699 356 L 708 356 L 716 356 L 725 356 L 734 356 L 742 356 L 751 356 L 760 356" stroke="#4285f4" class="trend-line"><title>Go: 611.3K lines</title></path><circle cx="80" cy="416" r="3" fill="#ea4335" class="data-point"><title>Markdown: 882 lines (Aug 9, 2025)</title></circle><circle cx="415" cy="375" r="3" fill="#ea4335" class="data-point"><title>Markdown: 8.5K lines (Aug 12, 2025)</title></circle><circle cx="424" cy="371" r="3" fill="#ea4335" class="data-point"><title>Markdown: 9.4K lines (Aug 12, 2025)</title></circle><circle cx="432" cy="371" r="3" fill="#ea4335" class="data-point"><title>Markdown: 9.4K lines (Aug 12, 2025)</title></circle><circle cx="441" cy="370" r="3" fill="#ea4335" class="data-point"><title>Markdown: 9.4K lines (Aug 12, 2025)</title></circle><circle cx="450" cy="369" r="3" fill="#ea4335" class="data-point"><title>Markdown: 9.5K lines (Aug 12, 2025)</title></circle><circle cx="458" cy="370" r="3" fill="#ea4335" class="data-point"><title>Markdown: 9.5K lines (Aug 12, 2025)</title></circle><circle cx="760" cy="391" r="3" fill="#ea4335" class="data-point"><title>Markdown: 5.5K lines (Aug 28, 2025)</title></circle><path d="M 80 416 L 88 416 L 97 416 L 105 416 L 114 416 L 123 416 L 131 416 L 140 416 L 148 416 L 157 415 L 166 414 L 174 413 L 183 412 L 191 412 L 200 412 L 209 412 L 217 412 L 226 412 L 234 412 L 243 411 L 252 411 L 260 411 L 269 407 L 277 407 L 286 406 L 295 406 L 303 406 L 312 406 L 321 406 L 329 406 L 338 406 L 346 406 L 355 405 L 364 405 L 372 404 L 381 402 L 389 404 L 398 404 L 407 402 L 415 375 L 424 371 L 432 371 L 441 370 L 450 369 L 458 370 L 467 416 L 475 415 L 484 415 L 493 415 L 501 409 L 510 407 L 518 407 L 527 407 L 536 392 L 544 392 L 553 392 L 562 392 L 570 396 L 579 396 L 587 396 L 596 396 L 605 391 L 613 389 L 622 392 L 630 392 L 639 392 L 648 392 L 656 392 L 665 392 L 673 392 L 682 392 L 691 392 L 699 392 L 708 392 L 716 390 L 725 390 L 734 394 L 742 391 L 751 391 L 760 391" stroke="#ea4335" class="trend-line"><title>Markdown: 289.6K lines</title></path><circle cx="80" cy="252" r="3" fill="#34a853" class="data-point"><title>JSON: 31.5K lines (Aug 9, 2025)</title></circle><circle cx="88" cy="252" r="3" fill="#34a853" class="data-point"><title>JSON: 31.5K lines (Aug 9, 2025)</title></circle><circle cx="97" cy="252" r="3" fill="#34a853" class="data-point"><title>JSON: 31.5K lines (Aug 9, 2025)</title></circle><circle cx="105" cy="252" r="3" fill="#34a853" class="data-point"><title>JSON: 31.5K lines (Aug 9, 2025)</title></circle><circle cx="114" cy="252" r="3" fill="#34a853" class="data-point"><title>JSON: 31.5K lines (Aug 9, 2025)</title></circle><circle cx="123" cy="252" r="3" fill="#34a853" class="data-point"><title>JSON: 31.5K lines (Aug 9, 2025)</title></circle><circle cx="131" cy="252" r="3" fill="#34a853" class="data-point"><title>JSON: 31.5K lines (Aug 9, 2025)</title></circle><circle cx="140" cy="252" r="3" fill="#34a853" class="data-point"><title>JSON: 31.5K lines (Aug 9, 2025)</title></circle><circle cx="760" cy="419" r="3" fill="#34a853" class="data-point"><title>JSON: 249 lines (Aug 28, 2025)</title></circle><path d="M 80 252 L 88 252 L 97 252 L 105 252 L 114 252 L 123 252 L 131 252 L 140 252 L 148 420 L 157 420 L 166 420 L 174 420 L 183 420 L 191 420 L 200 420 L 209 420 L 217 420 L 226 420 L 234 420 L 243 420 L 252 420 L 260 420 L 269 420 L 277 420 L 286 420 L 295 420 L 303 420 L 312 420 L 321 420 L 329 420 L 338 420 L 346 420 L 355 420 L 364 420 L 372 420 L 381 420 L 389 420 L 398 420 L 407 420 L 415 403 L 424 403 L 432 403 L 441 403 L 450 403 L 458 403 L 467 420 L 475 420 L 484 420 L 493 420 L 501 420 L 510 420 L 518 420 L 527 420 L 536 420 L 544 420 L 553 420 L 562 420 L 570 420 L 579 420 L 587 420 L 596 420 L 605 420 L 613 420 L 622 420 L 630 420 L 639 420 L 648 420 L 656 420 L 665 420 L 673 420 L 682 420 L 691 420 L 699 420 L 708 420 L 716 420 L 725 420 L 734 419 L 742 419 L 751 419 L 760 419" stroke="#34a853" class="trend-line"><title>JSON: 274.4K lines</title></path><circle cx="80" cy="308" r="3" fill="#fbbc04" class="data-point"><title>HTML: 21.1K lines (Aug 9, 2025)</title></circle><circle cx="88" cy="308" r="3" fill="#fbbc04" class="data-point"><title>HTML: 21.1K lines (Aug 9, 2025)</title></circle><circle cx="97" cy="308" r="3" fill="#fbbc04" class="data-point"><title>HTML: 21.1K lines (Aug 9, 2025)</title></circle><circle cx="105" cy="308" r="3" fill="#fbbc04" class="data-point"><title>HTML: 21.1K lines (Aug 9, 2025)</title></circle><circle cx="114" cy="308" r="3" fill="#fbbc04" class="data-point"><title>HTML: 21.1K lines (Aug 9, 2025)</title></circle><circle cx="123" cy="308" r="3" fill="#fbbc04" class="data-point"><title>HTML: 21.1K lines (Aug 9, 2025)</title></circle><circle cx="131" cy="308" r="3" fill="#fbbc04" class="data-point"><title>HTML: 21.1K lines (Aug 9, 2025)</title></circle><circle cx="140" cy="308" r="3" fill="#fbbc04" class="data-point"><title>HTML: 21.1K lines (Aug 9, 2025)</title></circle><circle cx="760" cy="420" r="3" fill="#fbbc04" class="data-point"><title>HTML: 0 lines (Aug 28, 2025)</title></circle><path d="M 80 308 L 88 308 L 97 308 L 105 308 L 114 308 L 123 308 L 131 308 L 140 308 L 148 420 L 157 420 L 166 420 L 174 420 L 183 420 L 191 420 L 200 420 L 209 420 L 217 420 L 226 420 L 234 420 L 243 420 L 252 420 L 260 420 L 269 420 L 277 420 L 286 420 L 295 420 L 303 420 L 312 420 L 321 420 L 329 420 L 338 420 L 346 420 L 355 420 L 364 420 L 372 420 L 381 420 L 389 420 L 398 420 L 407 420 L 415 420 L 424 420 L 432 420 L 441 420 L 450 420 L 458 420 L 467 420 L 475 415 L 484 416 L 493 420 L 501 420 L 510 420 L 518 420 L 527 420 L 536 420 L 544 420 L 553 420 L 562 420 L 570 420 L 579 420 L 587 420 L 596 420 L 605 420 L 613 420 L 622 420 L 630 420 L 639 420 L 648 420 L 656 420 L 665 420 L 673 420 L 682 420 L 691 420 L 699 420 L 708 420 L 716 420 L 725 420 L 734 420 L 742 420 L 751 420 L 760 420" stroke="#fbbc04" class="trend-line"><title>HTML: 170.4K lines</title></path><circle cx="80" cy="419" r="3" fill="#9c27b0" class="data-point"><title>YAML: 191 lines (Aug 9, 2025)</title></circle><circle cx="760" cy="400" r="3" fill="#9c27b0" class="data-point"><title>YAML: 3.8K lines (Aug 28, 2025)</title></circle><path d="M 80 419 L 88 419 L 97 420 L 105 419 L 114 419 L 123 419 L 131 419 L 140 419 L 148 420 L 157 420 L 166 419 L 174 419 L 183 419 L 191 419 L 200 419 L 209 419 L 217 419 L 226 419 L 234 419 L 243 418 L 252 418 L 260 418 L 269 418 L 277 418 L 286 418 L 295 418 L 303 418 L 312 418 L 321 418 L 329 418 L 338 418 L 346 418 L 355 418 L 364 418 L 372 418 L 381 417 L 389 417 L 398 417 L 407 417 L 415 397 L 424 397 L 432 397 L 441 397 L 450 397 L 458 397 L 467 415 L 475 415 L 484 415 L 493 415 L 501 410 L 510 410 L 518 410 L 527 410 L 536 403 L 544 403 L 553 403 L 562 403 L 570 403 L 579 403 L 587 403 L 596 403 L 605 403 L 613 403 L 622 403 L 630 403 L 639 403 L 648 403 L 656 403 L 665 403 L 673 403 L 682 403 L 691 403 L 699 402 L 708 401 L 716 401 L 725 401 L 734 400 L 742 400 L 751 400 L 760 400" stroke="#9c27b0" class="trend-line"><title>YAML: 145.2K lines</title></path><circle cx="80" cy="420" r="3" fill="#ff6d00" class="data-point"><title>Templ: 0 lines (Aug 9, 2025)</title></circle><circle cx="760" cy="417" r="3" fill="#ff6d00" class="data-point"><title>Templ: 562 lines (Aug 28, 2025)</title></circle><path d="M 80 420 L 88 420 L 97 420 L 105 420 L 114 420 L 123 420 L 131 420 L 140 420 L 148 420 L 157 420 L 166 420 L 174 420 L 183 420 L 191 420 L 200 420 L 209 420 L 217 420 L 226 420 L 234 420 L 243 420 L 252 420 L 260 420 L 269 420 L 277 420 L 286 420 L 295 420 L 303 420 L 312 420 L 321 420 L 329 420 L 338 420 L 346 420 L 355 420 L 364 420 L 372 420 L 381 417 L 389 417 L 398 417 L 407 417 L 415 417 L 424 417 L 432 417 L 441 417 L 450 417 L 458 417 L 467 417 L 475 417 L 484 417 L 493 417 L 501 417 L 510 417 L 518 417 L 527 417 L 536 417 L 544 417 L 553 417 L 562 417 L 570 417 L 579 417 L 587 417 L 596 417 L 605 417 L 613 417 L 622 417 L 630 417 L 639 417 L 648 417 L 656 417 L 665 417 L 673 417 L 682 417 L 691 417 L 699 417 L 708 417 L 716 417 L 725 417 L 734 417 L 742 417 L 751 417 L 760 417" stroke="#ff6d00" class="trend-line"><title>Templ: 25.3K lines</title></path><circle cx="80" cy="411" r="3" fill="#00bcd4" class="data-point"><title>Plain Text: 1.8K lines (Aug 9, 2025)</title></circle><circle cx="760" cy="419" r="3" fill="#00bcd4" class="data-point"><title>Plain Text: 329 lines (Aug 28, 2025)</title></circle><path d="M 80 411 L 88 411 L 97 411 L 105 411 L 114 411 L 123 411 L 131 411 L 140 411 L 148 420 L 157 420 L 166 420 L 174 420 L 183 420 L 191 420 L 200 420 L 209 420 L 217 420 L 226 420 L 234 420 L 243 420 L 252 420 L 260 420 L 269 420 L 277 420 L 286 420 L 295 420 L 303 420 L 312 420 L 321 420 L 329 420 L 338 420 L 346 420 L 355 420 L 364 420 L 372 420 L 381 420 L 389 420 L 398 420 L 407 420 L 415 420 L 424 420 L 432 420 L 441 420 L 450 420 L 458 420 L 467 420 L 475 420 L 484 420 L 493 420 L 501 420 L 510 420 L 518 420 L 527 420 L 536 420 L 544 420 L 553 420 L 562 420 L 570 420 L 579 420 L 587 420 L 596 420 L 605 419 L 613 419 L 622 419 L 630 419 L 639 419 L 648 419 L 656 419 L 665 419 L 673 419 L 682 419 L 691 419 L 699 419 L 708 419 L 716 419 L 725 419 L 734 419 L 742 419 L 751 419 L 760 419" stroke="#00bcd4" class="trend-line"><title>Plain Text: 21.8K lines</title></path><circle cx="80" cy="420" r="3" fill="#8bc34a" class="data-point"><title>Shell: 123 lines (Aug 9, 2025)</title></circle><circle cx="760" cy="420" r="3" fill="#8bc34a" class="data-point"><title>Shell: 36 lines (Aug 28, 2025)</title></circle><path d="M 80 420 L 88 420 L 97 420 L 105 420 L 114 420 L 123 420 L 131 420 L 140 420 L 148 420 L 157 420 L 166 420 L 174 420 L 183 420 L 191 420 L 200 420 L 209 420 L 217 420 L 226 420 L 234 420 L 243 420 L 252 420 L 260 420 L 269 420 L 277 420 L 286 420 L 295 420 L 303 420 L 312 420 L 321 420 L 329 420 L 338 420 L 346 420 L 355 420 L 364 420 L 372 420 L 381 420 L 389 420 L 398 420 L 407 420 L 415 413 L 424 413 L 432 413 L 441 413 L 450 413 L 458 413 L 467 420 L 475 420 L 484 420 L 493 420 L 501 420 L 510 420 L 518 420 L 527 420 L 536 420 L 544 420 L 553 420 L 562 420 L 570 420 L 579 420 L 587 420 L 596 420 L 605 420 L 613 420 L 622 420 L 630 420 L 639 420 L 648 420 L 656 420 L 665 420 L 673 420 L 682 420 L 691 420 L 699 420 L 708 420 L 716 420 L 725 420 L 734 420 L 742 420 L 751 420 L 760 420" stroke="#8bc34a" class="trend-line"><title>Shell: 15.7K lines</title></path><circle cx="80" cy="420" r="3" fill="#f44336" class="data-point"><title>SVG: 0 lines (Aug 9, 2025)</title></circle><circle cx="760" cy="420" r="3" fill="#f44336" class="data-point"><title>SVG: 117 lines (Aug 28, 2025)</title></circle><path d="M 80 420 L 88 420 L 97 420 L 105 420 L 114 420 L 123 420 L 131 420 L 140 420 L 148 420 L 157 420 L 166 420 L 174 420 L 183 420 L 191 420 L 200 420 L 209 420 L 217 420 L 226 420 L 234 420 L 243 420 L 252 420 L 260 420 L 269 420 L 277 420 L 286 420 L 295 420 L 303 420 L 312 420 L 321 420 L 329 420 L 338 420 L 346 420 L 355 420 L 364 420 L 372 420 L 381 420 L 389 420 L 398 420 L 407 420 L 415 420 L 424 420 L 432 420 L 441 420 L 450 420 L 458 420 L 467 420 L 475 420 L 484 420 L 493 420 L 501 420 L 510 420 L 518 420 L 527 420 L 536 420 L 544 420 L 553 420 L 562 420 L 570 420 L 579 420 L 587 420 L 596 420 L 605 420 L 613 420 L 622 420 L 630 420 L 639 420 L 648 420 L 656 420 L 665 420 L 673 420 L 682 420 L 691 420 L 699 420 L 708 420 L 716 420 L 725 420 L 734 420 L 742 420 L 751 420 L 760 420" stroke="#f44336" class="trend-line"><title>SVG: 7.9K lines</title></path><circle cx="80" cy="420" r="3" fill="#2196f3" class="data-point"><title>SQL: 0 lines (Aug 9, 2025)</title></circle><circle cx="760" cy="420" r="3" fill="#2196f3" class="data-point"><title>SQL: 85 lines (Aug 28, 2025)</title></circle><path d="M 80 420 L 88 420 L 97 420 L 105 420 L 114 420 L 123 420 L 131 420 L 140 420 L 148 420 L 157 420 L 166 420 L 174 420 L 183 420 L 191 420 L 200 420 L 209 420 L 217 420 L 226 420 L 234 420 L 243 420 L 252 420 L 260 420 L 269 420 L 277 420 L 286 420 L 295 420 L 303 420 L 312 420 L 321 420 L 329 420 L 338 420 L 346 420 L 355 420 L 364 420 L 372 420 L 381 420 L 389 420 L 398 420 L 407 420 L 415 420 L 424 420 L 432 420 L 441 420 L 450 420 L 458 420 L 467 420 L 475 420 L 484 420 L 493 420 L 501 420 L 510 420 L 518 420 L 527 420 L 536 420 L 544 420 L 553 420 L 562 420 L 570 420 L 579 420 L 587 420 L 596 420 L 605 420 L 613 420 L 622 420 L 630 420 L 639 420 L 648 420 L 656 420 L 665 420 L 673 420 L 682 420 L 691 420 L 699 420 L 708 420 L 716 420 L 725 420 L 734 420 L 742 420 L 751 420 L 760 420" stroke="#2196f3" class="trend-line"><title>SQL: 3.6K lines</title></path><circle cx="80" cy="420" r="3" fill="#ff9800" class="data-point"><title>CloudFormation (YAML): 0 lines (Aug 9, 2025)</title></circle><circle cx="760" cy="420" r="3" fill="#ff9800" class="data-point"><title>CloudFormation (YAML): 0 lines (Aug 28, 2025)</title></circle><path d="M 80 420 L 88 420 L 97 420 L 105 420 L 114 420 L 123 420 L 131 420 L 140 420 L 148 420 L 157 420 L 166 420 L 174 420 L 183 420 L 191 420 L 200 420 L 209 420 L 217 420 L 226 420 L 234 420 L 243 420 L 252 420 L 260 420 L 269 420 L 277 420 L 286 420 L 295 420 L 303 420 L 312 420 L 321 420 L 329 420 L 338 420 L 346 420 L 355 420 L 364 420 L 372 420 L 381 420 L 389 420 L 398 420 L 407 420 L 415 419 L 424 419 L 432 419 L 441 419 L 450 419 L 458 419 L 467 420 L 475 420 L 484 420 L 493 420 L 501 420 L 510 420 L 518 420 L 527 420 L 536 420 L 544 420 L 553 420 L 562 420 L 570 420 L 579 420 L 587 420 L 596 420 L 605 420 L 613 420 L 622 420 L 630 420 L 639 420 L 648 420 L 656 420 L 665 420 L 673 420 L 682 420 L 691 420 L 699 420 L 708 420 L 716 420 L 725 420 L 734 420 L 742 420 L 751 420 L 760 420" stroke="#ff9800" class="trend-line"><title>CloudFormation (YAML): 1.9K lines</title></path><circle cx="80" cy="420" r="3" fill="#9e9e9e" class="data-point"><title>License: 0 lines (Aug 9, 2025)</title></circle><circle cx="760" cy="420" r="3" fill="#9e9e9e" class="data-point"><title>License: 17 lines (Aug 28, 2025)</title></circle><path d="M 80 420 L 88 420 L 97 420 L 105 420 L 114 420 L 123 420 L 131 420 L 140 420 L 148 420 L 157 420 L 166 420 L 174 420 L 183 420 L 191 420 L 200 420 L 209 420 L 217 420 L 226 420 L 234 420 L 243 420 L 252 420 L 260 420 L 269 420 L 277 420 L 286 420 L 295 420 L 303 420 L 312 420 L 321 420 L 329 420 L 338 420 L 346 420 L 355 420 L 364 420 L 372 420 L 381 420 L 389 420 L 398 420 L 407 420 L 415 420 L 424 420 L 432 420 L 441 420 L 450 420 L 458 420 L 467 420 L 475 420 L 484 420 L 493 420 L 501 420 L 510 420 L 518 420 L 527 420 L 536 420 L 544 420 L 553 420 L 562 420 L 570 420 L 579 420 L 587 420 L 596 420 L 605 420 L 613 420 L 622 420 L 630 420 L 639 420 L 648 420 L 656 420 L 665 420 L 673 420 L 682 420 L 691 420 L 699 420 L 708 420 L 716 420 L 725 420 L 734 420 L 742 420 L 751 420 L 760 420" stroke="#9e9e9e" class="trend-line"><title>License: 1.2K lines</title></path><circle cx="80" cy="420" r="3" fill="#607d8b" class="data-point"><title>Docker ignore: 0 lines (Aug 9, 2025)</title></circle><circle cx="760" cy="420" r="3" fill="#607d8b" class="data-point"><title>Docker ignore: 0 lines (Aug 28, 2025)</title></circle><path d="M 80 420 L 88 420 L 97 420 L 105 420 L 114 420 L 123 420 L 131 420 L 140 420 L 148 420 L 157 420 L 166 420 L 174 420 L 183 420 L 191 420 L 200 420 L 209 420 L 217 420 L 226 420 L 234 420 L 243 420 L 252 420 L 260 420 L 269 420 L 277 420 L 286 420 L 295 420 L 303 420 L 312 420 L 321 420 L 329 420 L 338 420 L 346 420 L 355 420 L 364 420 L 372 420 L 381 420 L 389 420 L 398 420 L 407 420 L 415 420 L 424 420 L 432 420 L 441 420 L 450 420 L 458 420 L 467 420 L 475 420 L 484 420 L 493 420 L 501 420 L 510 420 L 518 420 L 527 420 L 536 420 L 544 420 L 553 420 L 562 420 L 570 420 L 579 420 L 587 420 L 596 420 L 605 420 L 613 420 L 622 420 L 630 420 L 639 420 L 648 420 L 656 420 L 665 420 L 673 420 L 682 420 L 691 420 L 699 420 L 708 420 L 716 420 L 725 420 L 734 420 L 742 420 L 751 420 L 760 420" stroke="#607d8b" class="trend-line"><title>Docker ignore: 438 lines</title></path><circle cx="80" cy="420" r="3" fill="#795548" class="data-point"><title>Dockerfile: 0 lines (Aug 9, 2025)</title></circle><circle cx="760" cy="420" r="3" fill="#795548" class="data-point"><title>Dockerfile: 0 lines (Aug 28, 2025)</title></circle><path d="M 80 420 L 88 420 L 97 420 L 105 420 L 114 420 L 123 420 L 131 420 L 140 420 L 148 420 L 157 420 L 166 420 L 174 420 L 183 420 L 191 420 L 200 420 L 209 420 L 217 420 L 226 420 L 234 420 L 243 420 L 252 420 L 260 420 L 269 420 L 277 420 L 286 420 L 295 420 L 303 420 L 312 420 L 321 420 L 329 420 L 338 420 L 346 420 L 355 420 L 364 420 L 372 420 L 381 420 L 389 420 L 398 420 L 407 420 L 415 420 L 424 420 L 432 420 L 441 420 L 450 420 L 458 420 L 467 420 L 475 420 L 484 420 L 493 420 L 501 420 L 510 420 L 518 420 L 527 420 L 536 420 L 544 420 L 553 420 L 562 420 L 570 420 L 579 420 L 587 420 L 596 420 L 605 420 L 613 420 L 622 420 L 630 420 L 639 420 L 648 420 L 656 420 L 665 420 L 673 420 L 682 420 L 691 420 L 699 420 L 708 420 L 716 420 L 725 420 L 734 420 L 742 420 L 751 420 L 760 420" stroke="#795548" class="trend-line"><title>Dockerfile: 150 lines</title></path><circle cx="80" cy="420" r="3" fill="#009688" class="data-point"><title>Makefile: 144 lines (Aug 9, 2025)</title></circle><circle cx="760" cy="420" r="3" fill="#009688" class="data-point"><title>Makefile: 0 lines (Aug 28, 2025)</title></circle><path d="M 80 420 L 88 420 L 97 420 L 105 420 L 114 420 L 123 420 L 131 420 L 140 420 L 148 420 L 157 420 L 166 420 L 174 420 L 183 420 L 191 420 L 200 420 L 209 420 L 217 420 L 226 420 L 234 420 L 243 420 L 252 420 L 260 420 L 269 420 L 277 420 L 286 420 L 295 420 L 303 420 L 312 420 L 321 420 L 329 420 L 338 420 L 346 420 L 355 420 L 364 420 L 372 420 L 381 420 L 389 420 L 398 420 L 407 420 L 415 420 L 424 420 L 432 420 L 441 420 L 450 420 L 458 420 L 467 420 L 475 420 L 484 420 L 493 420 L 501 420 L 510 420 L 518 420 L 527 420 L 536 420 L 544 420 L 553 420 L 562 420 L 570 420 L 579 420 L 587 420 L 596 420 L 605 420 L 613 420 L 622 420 L 630 420 L 639 420 L 648 420 L 656 420 L 665 420 L 673 420 L 682 420 L 691 420 L 699 420 L 708 420 L 716 420 L 725 420 L 734 420 L 742 420 L 751 420 L 760 420" stroke="#009688" class="trend-line"><title>Makefile: 144 lines</title></path><circle cx="80" cy="420" r="3" fill="#673ab7" class="data-point"><title>JavaScript: 10 lines (Aug 9, 2025)</title></circle><circle cx="760" cy="420" r="3" fill="#673ab7" class="data-point"><title>JavaScript: 0 lines (Aug 28, 2025)</title></circle><path d="M 80 420 L 88 420 L 97 420 L 105 420 L 114 420 L 123 420 L 131 420 L 140 420 L 148 420 L 157 420 L 166 420 L 174 420 L 183 420 L 191 420 L 200 420 L 209 420 L 217 420 L 226 420 L 234 420 L 243 420 L 252 420 L 260 420 L 269 420 L 277 420 L 286 420 L 295 420 L 303 420 L 312 420 L 321 420 L 329 420 L 338 420 L 346 420 L 355 420 L 364 420 L 372 420 L 381 420 L 389 420 L 398 420 L 407 420 L 415 420 L 424 420 L 432 420 L 441 420 L 450 420 L 458 420 L 467 420 L 475 420 L 484 420 L 493 420 L 501 420 L 510 420 L 518 420 L 527 420 L 536 420 L 544 420 L 553 420 L 562 420 L 570 420 L 579 420 L 587 420 L 596 420 L 605 420 L 613 420 L 622 420 L 630 420 L 639 420 L 648 420 L 656 420 L 665 420 L 673 420 L 682 420 L 691 420 L 699 420 L 708 420 L 716 420 L 725 420 L 734 420 L 742 420 L 751 420 L 760 420" stroke="#673ab7" class="trend-line"><title>JavaScript: 80 lines</title></path><circle cx="80" cy="420" r="3" fill="#4285f4" class="data-point"><title>CSS: 2 lines (Aug 9, 2025)</title></circle><circle cx="760" cy="420" r="3" fill="#4285f4" class="data-point"><title>CSS: 0 lines (Aug 28, 2025)</title></circle><path d="M 80 420 L 88 420 L 97 420 L 105 420 L 114 420 L 123 420 L 131 420 L 140 420 L 148 420 L 157 420 L 166 420 L 174 420 L 183 420 L 191 420 L 200 420 L 209 420 L 217 420 L 226 420 L 234 420 L 243 420 L 252 420 L 260 420 L 269 420 L 277 420 L 286 420 L 295 420 L 303 420 L 312 420 L 321 420 L 329 420 L 338 420 L 346 420 L 355 420 L 364 420 L 372 420 L 381 420 L 389 420 L 398 420 L 407 420 L 415 420 L 424 420 L 432 420 L 441 420 L 450 420 L 458 420 L 467 420 L 475 420 L 484 420 L 493 420 L 501 420 L 510 420 L 518 420 L 527 420 L 536 420 L 544 420 L 553 420 L 562 420 L 570 420 L 579 420 L 587 420 L 596 420 L 605 420 L 613 420 L 622 420 L 630 420 L 639 420 L 648 420 L 656 420 L 665 420 L 673 420 L 682 420 L 691 420 L 699 420 L 708 420 L 716 420 L 725 420 L 734 420 L 742 420 L 751 420 L 760 420" stroke="#4285f4" class="trend-line"><title>CSS: 16 lines</title></path><text x="65" y="420" class="axis-label" text-anchor="end" dominant-baseline="middle">0</text><text x="65" y="338" class="axis-label" text-anchor="end" dominant-baseline="middle">15.4K</text><text x="65" y="255" class="axis-label" text-anchor="end" dominant-baseline="middle">30.9K</text><text x="65" y="173" class="axis-label" text-anchor="end" dominant-baseline="middle">46.3K</text><text x="65" y="90" class="axis-label" text-anchor="end" dominant-baseline="middle">61.7K</text><text x="80" y="440" class="axis-label" text-anchor="middle">Aug 25</text><text x="243" y="440" class="axis-label" text-anchor="middle">Aug 25</text><text x="415" y="440" class="axis-label" text-anchor="middle">Aug 25</text><text x="587" y="440" class="axis-label" text-anchor="middle">Aug 25</text><text x="760" y="440" class="axis-label" text-anchor="middle">Aug 25</text><text x="20" y="255" class="axis-title" text-anchor="middle" transform="rotate(-90 20 255)">Lines</text><rect x="758" y="88" width="180" height="256" class="legend-background"/><text x="770" y="116" class="legend-title">Languages</text><circle cx="775" cy="132" r="5" fill="#4285f4" class="legend-color-indicator"/><text x="788" y="132" class="legend-text" dominant-baseline="middle">Go</text><text x="940" y="132" class="legend-count" dominant-baseline="middle" text-anchor="end">611.3K</text><circle cx="775" cy="150" r="5" fill="#ea4335" class="legend-color-indicator"/><text x="788" y="150" class="legend-text" dominant-baseline="middle">Markdown</text><text x="940" y="150" class="legend-count" dominant-baseline="middle" text-anchor="end">289.6K</text><circle cx="775" cy="168" r="5" fill="#34a853" class="legend-color-indicator"/><text x="788" y="168" class="legend-text" dominant-baseline="middle">JSON</text><text x="940" y="168" class="legend-count" dominant-baseline="middle" text-anchor="end">274.4K</text><circle cx="775" cy="186" r="5" fill="#fbbc04" class="legend-color-indicator"/><text x="788" y="186" class="legend-text" dominant-baseline="middle">HTML</text><text x="940" y="186" class="legend-count" dominant-baseline="middle" text-anchor="end">170.4K</text><circle cx="775" cy="204" r="5" fill="#9c27b0" class="legend-color-indicator"/><text x="788" y="204" class="legend-text" dominant-baseline="middle">YAML</text><text x="940" y="204" class="legend-count" dominant-baseline="middle" text-anchor="end">145.2K</text><circle cx="775" cy="222" r="5" fill="#ff6d00" class="legend-color-indicator"/><text x="788" y="222" class="legend-text" dominant-baseline="middle">Templ</text><text x="940" y="222" class="legend-count" dominant-baseline="middle" text-anchor="end">25.3K</text><circle cx="775" cy="240" r="5" fill="#00bcd4" class="legend-color-indicator"/><text x="788" y="240" class="legend-text" dominant-baseline="middle">Plain Text</text><text x="940" y="240" class="legend-count" dominant-baseline="middle" text-anchor="end">21.8K</text><circle cx="775" cy="258" r="5" fill="#8bc34a" class="legend-color-indicator"/><text x="788" y="258" class="legend-text" dominant-baseline="middle">Shell</text><text x="940" y="258" class="legend-count" dominant-baseline="middle" text-anchor="end">15.7K</text><circle cx="775" cy="276" r="5" fill="#f44336" class="legend-color-indicator"/><text x="788" y="276" class="legend-text" dominant-baseline="middle">SVG</text><text x="940" y="276" class="legend-count" dominant-baseline="middle" text-anchor="end">7.9K</text><circle cx="775" cy="294" r="5" fill="#2196f3" class="legend-color-indicator"/><text x="788" y="294" class="legend-text" dominant-baseline="middle">SQL</text><text x="940" y="294" class="legend-count" dominant-baseline="middle" text-anchor="end">3.6K</text><circle cx="775" cy="312" r="5" fill="#ff9800" class="legend-color-indicator"/><text x="788" y="312" class="legend-text" dominant-baseline="middle">CloudFormation (YAML)</text><text x="940" y="312" class="legend-count" dominant-baseline="middle" text-anchor="end">1.9K</text><circle cx="775" cy="330" r="5" fill="#9e9e9e" class="legend-color-indicator"/><text x="788" y="330" class="legend-text" dominant-baseline="middle">License</text><text x="940" y="330" class="legend-count" dominant-baseline="middle" text-anchor="end">1.2K</text><text x="770" y="348" class="meta-text">...and 5 more</text><text x="60" y="505" class="meta-text">Aug 25 to Aug 25 • 80 commits • 22.7K total lines</text></svg>